PathFileType	4	(X/Y/Z)	C:\Github\BTS_project\Data\sports2d_results\test6 Exam_2026-03-06_143334_tvc4_Sports2D\test6 Exam_2026-03-06_143334_tvc4_Sports2D_m_person00.trc
DataRate	CameraRate	NumFrames	NumMarkers	Units	OrigDataRate	OrigDataStartFrame	OrigNumFrames
30.0	30.0	7	22	m	30.0	56	112
Frame#	Time	Hip			RHip			RKnee			RAnkle			RBigToe			RSmallToe			RHeel			LHip			LKnee			LAnkle			LBigToe			LSmallToe			LHeel			Neck			Head			Nose			RShoulder			RElbow			RWrist			LShoulder			LElbow			LWrist			
		X1	Y1	Z1	X2	Y2	Z2	X3	Y3	Z3	X4	Y4	Z4	X5	Y5	Z5	X6	Y6	Z6	X7	Y7	Z7	X8	Y8	Z8	X9	Y9	Z9	X10	Y10	Z10	X11	Y11	Z11	X12	Y12	Z12	X13	Y13	Z13	X14	Y14	Z14	X15	Y15	Z15	X16	Y16	Z16	X17	Y17	Z17	X18	Y18	Z18	X19	Y19	Z19	X20	Y20	Z20	X21	Y21	Z21	X22	Y22	Z22
164	5.491628614916285	1.359551272871036	1.385444447981875	0.0301	1.1583961540021297	1.3827770360477787	0.0301	0.9913263563697788	0.8125084757958589	0.129	0.8129282888737994	0.20131772752651575	0.023	0.8972238298077974	0.039513177368903245	0.2179	0.7788895205914118	0.04529828180197534	0.1804	0.7670133840652794	0.11897949492730298	-0.0119	1.539401688608238	1.311348301392418	0.0301	1.504964991753857	0.7477093202259273	0.129	1.4257372840098894	0.17944375339428595	0.023	1.5796992260557376	0.03235581628673302	0.2179	1.6043279386256175	0.04240654983538569	0.1804	1.343598100243435	0.08182678481155425	-0.0119	1.4767312835251165	2.3552084311979202	0.0008	1.5407403783064464	2.761013395194407	0.0655	1.597552650824367	2.541064977289506	0.1076	1.1365461532642422	2.2426656742699187	-0.01275	0.96835464961844	1.8613893126623442	0.0702	1.2880539427521025	1.8616722358391489	0.1076	1.7357289237320386	2.158564420307576	-0.01275	1.832268765748255	1.7441503403308565	0.0702	1.7166280080083642	1.7550386900816857	0.1076
165	5.525114155251141	1.3600113852989784	1.3861139655303263	0.0301	1.1570709907471144	1.3827386685996683	0.0301	0.993070528899146	0.8125325834555395	0.129	0.8122838549745574	0.2004752972478941	0.023	0.8962197136789496	0.03799966874293943	0.2179	0.7784854727931191	0.04642747523490996	0.1804	0.7664780445374229	0.11780682485082537	-0.0119	1.5395950480921727	1.313391950599881	0.0301	1.5056253013553735	0.745021618718113	0.129	1.4236235001390969	0.1779158606858149	0.023	1.5878926397034911	0.029830580583648614	0.2179	1.6080654567000876	0.04308419830482409	0.1804	1.3414594580535262	0.08435115792809393	-0.0119	1.478179175151783	2.3555070581661792	0.0008	1.5384730695686095	2.7614730558554115	0.0655	1.5971719453553133	2.541520940264712	0.1076	1.1362351588392152	2.2414359547424576	-0.01275	0.9699249737381452	1.861863812957715	0.0702	1.2888268015681523	1.8604087972894583	0.1076	1.7358095480854054	2.1604126288702896	-0.01275	1.8373103219296663	1.7483272809534505	0.0702	1.7183823791305484	1.7652751202049763	0.1076
166	5.558599695585997	1.361158628932574	1.3889620088608294	0.0301	1.1558070675223941	1.3828112234645296	0.0301	0.9928752487809354	0.8131663559402041	0.129	0.8125518961002268	0.19926008066681106	0.023	0.8952148287576878	0.037542286010008113	0.2179	0.7775119381952814	0.045957664842132	0.1804	0.7686191582794282	0.11398513766064135	-0.0119	1.5417553329200075	1.3152460876447174	0.0301	1.5065990841751868	0.7453976468435123	0.129	1.4230982135310972	0.1769208000274162	0.023	1.5973282803102344	0.028953401604727484	0.2179	1.6123326650528802	0.04281949145049522	0.1804	1.3411709567990078	0.0848585910865928	-0.0119	1.4789371785456435	2.358453482858967	0.0008	1.536064668498607	2.7641932591864937	0.0655	1.5955396627757377	2.540998891556609	0.1076	1.1371860657799209	2.2423087948074043	-0.01275	0.9695293181085712	1.861860724203977	0.0702	1.288385598402737	1.8587738073531501	0.1076	1.7364571501866233	2.161095968559757	-0.01275	1.8437660835563605	1.7495537585355623	0.0702	1.7275444647945162	1.7745267206139925	0.1076
167	5.592085235920852	1.3620571399926202	1.3929543584665516	0.0301	1.1565633850574804	1.3827335928309314	0.0301	0.9918440984487853	0.8136396649146658	0.129	0.8139255644297662	0.20026011501507848	0.023	0.894359763438975	0.0385030479574634	0.2179	0.7756777858240552	0.045083384796140505	0.1804	0.7734061974382196	0.11096863283266585	-0.0119	1.5432688336348699	1.3161172014369789	0.0301	1.506993493603257	0.7479288142574076	0.129	1.4241273761888291	0.1777675592483796	0.023	1.6013360666288503	0.0313676382777806	0.2179	1.6134630322540147	0.04315547055749262	0.1804	1.3426853665350713	0.0818856235315809	-0.0119	1.4776225300222094	2.3629632938623057	0.0008	1.5330908907044725	2.7688381681707885	0.0655	1.59304998797229	2.541336628406942	0.1076	1.1386185545843774	2.2449198169570597	-0.01275	0.9690392890404808	1.8620462751263078	0.0702	1.288012240480851	1.8599914727809426	0.1076	1.7357813678449947	2.1614418062082104	-0.01275	1.846920968074018	1.7500792232128626	0.0702	1.7368098447831801	1.7803262624816514	0.1076
168	5.6255707762557075	1.3619073935016974	1.3942217414197018	0.0301	1.1589786504632658	1.3801180104328956	0.0301	0.9913624009733993	0.8134400644861689	0.129	0.8147799831310569	0.20350089678398764	0.023	0.8936194532839958	0.03971992405375971	0.2179	0.7731661669161426	0.04449339143115233	0.1804	0.7763331254354502	0.11070944668848909	-0.0119	1.5432976508250023	1.3154893946587574	0.0301	1.5065692009219072	0.7493037069373939	0.129	1.4248788833849246	0.17964086769348467	0.023	1.5995191724672486	0.03513326584947688	0.2179	1.611032109203264	0.04453214987789428	0.1804	1.3428371138773765	0.07824996879840518	-0.0119	1.4767404730777356	2.3657434432656808	0.0008	1.5315976583493562	2.7707322510567933	0.0655	1.5918469054913054	2.540980061170075	0.1076	1.138643902798979	2.2464130135367593	-0.01275	0.9692742434126137	1.8615603736615465	0.0702	1.28871779698607	1.86341213992793	0.1076	1.73416842838841	2.161574393780647	-0.01275	1.8457629447177049	1.7508290583906532	0.0702	1.74288075368188	1.7818452002661933	0.1076
169	5.659056316590563	1.3614154004824	1.3921003620572274	0.0301	1.1605451008451741	1.3776880772744653	0.0301	0.9918250689285959	0.813759367365893	0.129	0.8143104767330269	0.20515187082011072	0.023	0.8930115151658102	0.04029011464065753	0.2179	0.7710055747222309	0.04447846139481319	0.1804	0.775215906282014	0.11085735982345088	-0.0119	1.5436466823030304	1.3141992608685777	0.0301	1.5062593687930643	0.7492447583846588	0.129	1.4245131767624297	0.18005583535775363	0.023	1.595955744036297	0.03723488412164187	0.2179	1.6081049074421945	0.04534619821506084	0.1804	1.3417410557133902	0.07727109610228468	-0.0119	1.4778762912058594	2.365964811609652	0.0008	1.5322872956984162	2.7683655038826505	0.0655	1.5929173030559016	2.5403206958769964	0.1076	1.1374370841578068	2.2460571992082725	-0.01275	0.9693272622441303	1.8593405072360982	0.0702	1.2891768154321654	1.8657466671946825	0.1076	1.733400968925214	2.1615532736083947	-0.01275	1.8456732133402023	1.7514175996505632	0.0702	1.7464897704175015	1.7821867036834664	0.1076
170	5.692541856925418	1.3613024644886955	1.390058106876784	0.0301	1.160993734641388	1.380724868186159	0.0301	0.9927523170736118	0.8158678760845675	0.129	0.8134277784879406	0.20415745690071177	0.023	0.8922621664331061	0.04093448863572725	0.2179	0.770404907814937	0.045808873189008247	0.1804	0.7736828489518219	0.11081239758600733	-0.0119	1.5442464466430028	1.3135041628328623	0.0301	1.5065812379651413	0.7498936968375232	0.129	1.4241460049139694	0.17952475887653987	0.023	1.5939235873708228	0.03752302250588269	0.2179	1.6071148022390898	0.046195443402430855	0.1804	1.3424496642628643	0.07869263638059738	-0.0119	1.4790523926039658	2.3650215307100746	0.0008	1.5327294541319199	2.765790966618649	0.0655	1.59405444278344	2.5415023767613563	0.1076	1.1368281033910743	2.246098814996921	-0.01275	0.9689130991502788	1.8572077231981228	0.0702	1.2877669337666307	1.8659944939554876	0.1076	1.7334326731796237	2.161327243099152	-0.01275	1.8483715390550435	1.7517499225923583	0.0702	1.7464335988015436	1.7863809398265487	0.1076
